# xmcd CD database file
#
# Track frame offsets:
#	183
#	13510
#	27635
#	38503
#	49105
#	59215
#	71540
#	81768
#	92545
#	103950
#	115478
#	128055
#
# Disc length: 1853 seconds
#
# Revision: 2
# Processed by: cddbd v1.4b41PL1 Copyright (c) Steve Scherf et al.
# Submitted via: Feurio! 1.50.2ß - http://www.feurio.com
#
DISCID=a3073b0c
DTITLE=The Searchers - Twist And Shout
DYEAR=1900
DGENRE=
TTITLE0=Goodbye My Love
TTITLE1=Four Strong Winds
TTITLE2=Sea Of Heartbreak
TTITLE3=When You Walk In The Room
TTITLE4=Gonne Send You Back To Georgia
TTITLE5=Twist And Shout
TTITLE6=Don't Throw Your Love Away
TTITLE7=Da Doo Ron Ron
TTITLE8=The System
TTITLE9=Magic Potion
TTITLE10=Each Time
TTITLE11=Western Union
EXTD=
EXTT0=
EXTT1=
EXTT2=
EXTT3=
EXTT4=
EXTT5=
EXTT6=
EXTT7=
EXTT8=
EXTT9=
EXTT10=
EXTT11=
PLAYORDER=
